<svg xmlns="http://www.w3.org/2000/svg" xmlns:xlink="http://www.w3.org/1999/xlink" width="405" zoomAndPan="magnify" viewBox="0 0 303.75 42.75" height="57" preserveAspectRatio="xMidYMid meet" version="1.0"><defs><g/><clipPath id="db7976dba3"><path d="M 0.886719 0.316406 L 34.4375 0.316406 L 34.4375 42 L 0.886719 42 Z M 0.886719 0.316406 " clip-rule="nonzero"/></clipPath></defs><g clip-path="url(#db7976dba3)"><path fill="#314e52" d="M 32.515625 27.097656 C 32.488281 26.929688 32.457031 26.765625 32.429688 26.601562 C 32.4375 26.023438 32.675781 25.464844 32.660156 24.882812 C 32.65625 24.722656 32.625 24.527344 32.597656 24.320312 C 32.664062 24.128906 32.734375 23.933594 32.828125 23.746094 C 32.9375 23.519531 33.105469 23.339844 33.261719 23.140625 C 33.320312 23.25 33.375 23.363281 33.417969 23.484375 C 33.757812 24.421875 33.621094 25.496094 33.59375 26.46875 C 33.542969 28.222656 33.304688 30.121094 33.976562 31.78125 C 33.675781 31.9375 33.367188 32.035156 33.046875 32.121094 C 33.054688 30.441406 32.789062 28.734375 32.515625 27.097656 Z M 16.753906 40.6875 C 14.554688 40.429688 12.363281 39.871094 10.328125 39.003906 C 9.53125 38.667969 8.75 38.277344 8.019531 37.808594 C 6.949219 37.121094 5.855469 36.328125 4.953125 35.4375 C 3.492188 33.988281 3.148438 32.042969 3.246094 30.039062 C 3.433594 30.527344 3.6875 30.992188 3.9375 31.410156 C 4.46875 32.304688 5.140625 33.109375 5.90625 33.808594 C 7.535156 35.300781 9.554688 36.289062 11.65625 36.9375 C 12.925781 37.328125 14.25 37.640625 15.59375 37.859375 C 16.183594 38.394531 16.96875 38.636719 17.765625 38.679688 C 18.191406 38.703125 18.621094 38.707031 19.050781 38.714844 C 19.128906 38.730469 19.207031 38.746094 19.285156 38.761719 C 20.039062 39.363281 21.167969 39.347656 22.070312 39.546875 C 22.363281 39.609375 22.667969 39.691406 22.917969 39.859375 C 23.125 40 23.265625 40.203125 23.429688 40.382812 C 21.265625 40.867188 18.988281 40.949219 16.753906 40.6875 Z M 2.097656 31.917969 C 1.539062 31.554688 1.546875 30.773438 1.667969 30.195312 C 1.789062 29.605469 2.03125 29.046875 2.117188 28.449219 C 2.203125 27.875 2.15625 27.304688 2.070312 26.738281 C 1.890625 25.589844 1.472656 24.359375 1.875 23.210938 C 1.914062 23.097656 1.964844 22.984375 2.023438 22.878906 C 2.277344 23.164062 2.414062 23.625 2.5625 23.933594 C 2.5625 23.941406 2.566406 23.949219 2.570312 23.957031 C 2.570312 24.332031 2.609375 24.707031 2.671875 25.082031 C 2.765625 25.617188 2.898438 26.140625 2.96875 26.679688 C 3 26.949219 3 27.199219 2.984375 27.445312 C 2.929688 27.769531 2.878906 28.09375 2.832031 28.421875 C 2.832031 28.421875 2.832031 28.425781 2.832031 28.425781 C 2.824219 28.453125 2.820312 28.476562 2.816406 28.5 C 2.8125 28.515625 2.8125 28.53125 2.816406 28.542969 C 2.652344 29.726562 2.558594 30.960938 2.71875 32.152344 C 2.507812 32.089844 2.285156 32.042969 2.097656 31.917969 Z M 2.578125 7.769531 C 2.734375 7.011719 2.945312 6.25 3.238281 5.527344 C 3.398438 5.226562 3.574219 4.9375 3.777344 4.660156 C 4.507812 3.835938 5.351562 3.203125 6.335938 2.605469 C 6.964844 2.222656 7.613281 1.792969 8.332031 1.597656 C 8.589844 1.527344 8.84375 1.5 9.09375 1.496094 C 9.675781 1.570312 10.25 1.714844 10.804688 1.890625 C 11.769531 2.199219 12.628906 2.636719 13.371094 3.332031 C 14.046875 3.964844 14.683594 4.78125 15.160156 5.613281 C 13.957031 5.574219 12.75 5.554688 11.542969 5.5625 C 11.542969 5.558594 11.539062 5.550781 11.539062 5.546875 C 11.261719 5.101562 10.863281 4.820312 10.414062 4.664062 C 10.964844 4.6875 11.457031 4.878906 12.042969 5.011719 C 12.085938 5.023438 12.113281 4.964844 12.074219 4.9375 C 11.539062 4.597656 10.878906 4.398438 10.238281 4.453125 C 10.078125 4.46875 9.921875 4.496094 9.765625 4.53125 C 9.261719 4.484375 8.734375 4.558594 8.265625 4.714844 C 6.824219 5.191406 5.957031 6.425781 5.449219 7.792969 C 4.796875 9.5625 4.550781 11.511719 4.441406 13.378906 C 4.386719 14.246094 4.375 15.113281 4.417969 15.976562 C 4.367188 16.136719 4.300781 16.296875 4.234375 16.46875 C 4.046875 16.917969 3.957031 17.328125 3.964844 17.816406 C 3.96875 18.359375 3.949219 18.925781 3.957031 19.492188 C 3.925781 19.6875 3.898438 19.886719 3.878906 20.089844 C 3.789062 20.574219 3.738281 21.058594 3.832031 21.554688 C 3.839844 21.589844 3.855469 21.613281 3.878906 21.632812 C 3.734375 21.574219 3.582031 21.535156 3.433594 21.519531 C 3.054688 21.472656 2.679688 21.546875 2.351562 21.71875 C 2.222656 20.664062 2.054688 19.617188 2.035156 18.554688 C 2.011719 17.351562 1.921875 16.15625 1.921875 14.953125 C 1.929688 12.558594 2.09375 10.117188 2.578125 7.769531 Z M 5.53125 2.390625 C 6.269531 1.84375 7.15625 1.460938 8.085938 1.441406 C 8.171875 1.4375 8.253906 1.441406 8.339844 1.441406 C 7.609375 1.613281 6.949219 2.023438 6.3125 2.40625 C 6.042969 2.566406 5.765625 2.738281 5.484375 2.921875 C 5.550781 2.871094 5.617188 2.820312 5.6875 2.773438 C 5.695312 2.765625 5.6875 2.753906 5.675781 2.757812 C 5.53125 2.859375 5.386719 2.96875 5.246094 3.082031 C 4.78125 3.398438 4.328125 3.75 3.9375 4.144531 C 4.355469 3.476562 4.878906 2.878906 5.53125 2.390625 Z M 23.539062 6.941406 C 24.722656 7.082031 25.921875 7.207031 27.09375 7.433594 C 27.628906 7.535156 28.042969 7.722656 28.339844 8.203125 C 28.347656 8.214844 28.355469 8.226562 28.363281 8.242188 C 27.980469 10.035156 27.878906 11.875 26.785156 13.433594 C 26.261719 14.179688 25.558594 14.816406 24.691406 15.128906 C 23.714844 15.484375 22.636719 15.445312 21.609375 15.441406 C 21.296875 15.4375 20.988281 15.433594 20.675781 15.429688 C 20.671875 15.402344 20.667969 15.375 20.664062 15.351562 C 20.609375 14.894531 20.554688 14.433594 20.5 13.976562 C 20.488281 13.859375 20.429688 13.761719 20.308594 13.726562 C 19.304688 13.429688 18.277344 13.203125 17.25 12.992188 C 17.011719 12.945312 16.714844 12.84375 16.523438 13.050781 C 16.414062 13.171875 16.402344 13.394531 16.375 13.542969 C 16.324219 13.828125 16.269531 14.113281 16.214844 14.398438 C 16.199219 14.484375 16.101562 14.824219 16.058594 15.152344 C 15.730469 15.117188 15.398438 15.078125 15.070312 15.03125 C 13.222656 14.769531 11.457031 14.1875 10.226562 12.714844 C 8.96875 11.214844 8.644531 9.414062 8.777344 7.515625 C 8.78125 7.480469 8.773438 7.453125 8.757812 7.429688 C 9.113281 6.867188 9.640625 6.445312 10.40625 6.3125 C 11.40625 6.144531 12.496094 6.246094 13.503906 6.261719 C 14.558594 6.28125 15.609375 6.3125 16.660156 6.363281 C 18.957031 6.476562 21.253906 6.671875 23.539062 6.941406 Z M 24.125 4.539062 C 24.726562 4.046875 25.441406 3.675781 26.195312 3.488281 C 26.6875 3.363281 27.203125 3.328125 27.710938 3.375 C 27.261719 3.476562 26.828125 3.625 26.457031 3.78125 C 25.382812 4.226562 23.773438 4.941406 23.578125 6.257812 C 23.296875 6.222656 23.015625 6.191406 22.734375 6.160156 C 23.15625 5.574219 23.558594 5.003906 24.125 4.539062 Z M 32.308594 9.671875 C 32.625 11.585938 32.792969 13.523438 32.8125 15.464844 C 32.820312 16.527344 32.789062 17.589844 32.710938 18.652344 C 32.671875 19.167969 32.621094 19.679688 32.5625 20.191406 C 32.554688 20.25 32.546875 20.308594 32.539062 20.367188 C 32.335938 19.996094 32.046875 19.636719 31.792969 19.359375 C 31.675781 19.230469 31.609375 19.089844 31.519531 18.960938 C 31.371094 18.496094 31.304688 18.074219 31.28125 17.550781 C 31.257812 17.105469 31.164062 16.65625 30.917969 16.28125 C 30.910156 16.269531 30.902344 16.261719 30.890625 16.257812 C 30.898438 16.210938 30.90625 16.164062 30.914062 16.117188 C 31.03125 15.339844 31.136719 14.5625 31.214844 13.78125 C 31.367188 12.234375 31.421875 10.648438 31.210938 9.101562 C 31.074219 8.113281 30.722656 6.9375 29.722656 6.503906 C 29.445312 6.382812 29.066406 6.324219 28.703125 6.363281 C 28.285156 6.242188 27.851562 6.171875 27.417969 6.195312 C 27.3125 6.199219 27.316406 6.34375 27.417969 6.355469 C 27.691406 6.390625 27.953125 6.429688 28.214844 6.480469 C 28.011719 6.566406 27.839844 6.695312 27.726562 6.878906 C 27.078125 6.648438 26.3125 6.621094 25.683594 6.53125 C 25.03125 6.441406 24.375 6.355469 23.722656 6.273438 C 24.21875 5.035156 25.300781 4.414062 26.507812 3.898438 C 27.023438 3.675781 27.554688 3.503906 28.109375 3.425781 C 28.992188 3.582031 29.832031 3.984375 30.480469 4.613281 C 31.789062 5.878906 32.023438 7.964844 32.308594 9.671875 Z M 33.105469 22.917969 C 33.105469 22.917969 33.109375 22.914062 33.109375 22.914062 C 33.152344 22.96875 33.1875 23.027344 33.226562 23.085938 C 32.953125 23.289062 32.707031 23.617188 32.558594 23.964844 C 32.523438 23.492188 32.589844 23.042969 33.105469 22.917969 Z M 32.148438 25.101562 C 32.171875 24.660156 32.1875 24.21875 32.199219 23.777344 C 32.222656 23.703125 32.253906 23.628906 32.289062 23.558594 C 32.261719 23.734375 32.261719 23.921875 32.28125 24.097656 C 32.34375 24.6875 32.382812 25.164062 32.273438 25.753906 C 32.234375 25.535156 32.191406 25.316406 32.148438 25.101562 Z M 3.1875 26.117188 C 3.199219 26.121094 3.210938 26.125 3.21875 26.125 C 3.214844 26.152344 3.210938 26.179688 3.203125 26.203125 C 3.199219 26.175781 3.195312 26.144531 3.1875 26.117188 Z M 3.109375 25.082031 C 3.101562 25.261719 3.097656 25.441406 3.09375 25.621094 C 3.046875 25.40625 3.007812 25.195312 2.972656 25 C 2.960938 24.910156 2.945312 24.824219 2.933594 24.738281 C 2.988281 24.855469 3.046875 24.96875 3.109375 25.082031 Z M 2.875 23.839844 C 2.886719 23.523438 2.949219 23.210938 2.914062 22.894531 C 2.90625 22.832031 2.894531 22.757812 2.875 22.679688 C 3.085938 23.109375 3.105469 23.625 3.121094 24.101562 C 3.125 24.246094 3.128906 24.394531 3.128906 24.539062 C 3.125 24.644531 3.121094 24.746094 3.117188 24.851562 C 3.046875 24.6875 2.96875 24.527344 2.894531 24.363281 C 2.878906 24.191406 2.871094 24.015625 2.875 23.839844 Z M 3.46875 22.105469 C 3.460938 22.101562 3.453125 22.097656 3.445312 22.097656 C 3.4375 22.09375 3.425781 22.09375 3.417969 22.089844 C 3.4375 22.089844 3.457031 22.09375 3.476562 22.09375 C 3.476562 22.097656 3.472656 22.101562 3.46875 22.105469 Z M 4.027344 21.648438 C 4.03125 21.671875 4.035156 21.691406 4.039062 21.710938 C 4.003906 21.691406 3.96875 21.675781 3.933594 21.65625 C 3.964844 21.664062 3.996094 21.660156 4.027344 21.648438 Z M 4.515625 17.746094 C 4.527344 17.644531 4.535156 17.542969 4.546875 17.441406 C 4.5625 17.546875 4.574219 17.65625 4.59375 17.761719 C 4.566406 17.75 4.539062 17.746094 4.515625 17.746094 Z M 4.304688 20.960938 C 4.320312 20.917969 4.335938 20.878906 4.347656 20.835938 C 4.367188 20.839844 4.390625 20.84375 4.410156 20.84375 C 4.394531 20.902344 4.378906 20.960938 4.363281 21.023438 C 4.347656 21 4.324219 20.980469 4.304688 20.960938 Z M 3.996094 22.53125 C 3.996094 22.535156 3.996094 22.535156 3.996094 22.539062 C 3.984375 22.5 3.972656 22.457031 3.957031 22.417969 C 3.957031 22.347656 3.957031 22.277344 3.957031 22.203125 C 3.996094 22.21875 4.03125 22.234375 4.0625 22.25 C 4.042969 22.34375 4.019531 22.4375 3.996094 22.53125 Z M 3.476562 24.828125 C 3.480469 24.828125 3.480469 24.824219 3.484375 24.824219 C 3.480469 24.839844 3.476562 24.855469 3.472656 24.867188 C 3.476562 24.855469 3.476562 24.839844 3.476562 24.828125 Z M 3.074219 22.589844 C 3.074219 22.601562 3.074219 22.613281 3.078125 22.625 C 3.078125 22.636719 3.082031 22.648438 3.085938 22.660156 C 3.074219 22.632812 3.058594 22.609375 3.042969 22.582031 C 3.054688 22.585938 3.0625 22.585938 3.074219 22.589844 Z M 28.761719 9.375 C 28.738281 9.386719 28.722656 9.402344 28.707031 9.417969 C 28.714844 9.347656 28.71875 9.277344 28.722656 9.207031 C 28.738281 9.265625 28.75 9.320312 28.761719 9.375 Z M 27.589844 19.1875 C 28.144531 18.679688 28.347656 17.859375 28.476562 17.144531 C 28.398438 17.875 28.273438 18.644531 27.746094 19.140625 C 27.539062 19.332031 27.292969 19.472656 27.03125 19.578125 C 27.234375 19.46875 27.421875 19.34375 27.589844 19.1875 Z M 18.054688 19.320312 C 18.335938 19.367188 18.617188 19.410156 18.894531 19.460938 C 19.730469 19.613281 20.5625 19.777344 21.394531 19.921875 C 21.285156 19.921875 21.175781 19.929688 21.066406 19.945312 C 20.273438 20.0625 19.582031 20.066406 18.804688 19.816406 C 18.414062 19.691406 18.039062 19.527344 17.667969 19.351562 C 17.796875 19.347656 17.925781 19.335938 18.054688 19.320312 Z M 15.332031 18.964844 C 15.582031 18.996094 15.835938 19.027344 16.085938 19.058594 C 15.019531 18.996094 13.957031 18.859375 12.894531 18.648438 C 12.058594 18.484375 11.304688 18.1875 10.621094 17.707031 C 12.054688 18.484375 13.726562 18.765625 15.332031 18.964844 Z M 11.832031 17.8125 C 11.730469 17.777344 11.632812 17.738281 11.53125 17.699219 C 11.636719 17.71875 11.742188 17.734375 11.84375 17.75 C 11.835938 17.769531 11.832031 17.789062 11.832031 17.8125 Z M 15 18.039062 C 14.894531 18.023438 14.789062 18.003906 14.683594 17.988281 C 14.796875 17.996094 14.910156 18.003906 15.023438 18.011719 C 15.015625 18.019531 15.007812 18.03125 15 18.039062 Z M 27.289062 18.257812 C 27.289062 18.25 27.289062 18.242188 27.289062 18.234375 C 27.296875 18.230469 27.300781 18.226562 27.308594 18.222656 C 27.304688 18.234375 27.296875 18.246094 27.289062 18.257812 Z M 26.421875 18.738281 C 26.34375 18.796875 26.261719 18.851562 26.175781 18.894531 C 25.84375 19.054688 25.421875 18.972656 25.0625 18.921875 C 25.550781 18.855469 26.035156 18.746094 26.507812 18.574219 C 26.488281 18.632812 26.457031 18.6875 26.421875 18.738281 Z M 23.351562 18.992188 C 23.363281 19.007812 23.375 19.023438 23.394531 19.035156 C 23.398438 19.035156 23.40625 19.039062 23.410156 19.042969 C 23.242188 19.015625 23.074219 18.992188 22.910156 18.96875 C 23.058594 18.976562 23.203125 18.984375 23.351562 18.992188 Z M 32.421875 21.398438 C 32.394531 21.171875 32.207031 21.007812 32.039062 20.8125 C 31.796875 20.535156 31.882812 20.285156 31.832031 19.953125 C 31.8125 19.828125 31.777344 19.699219 31.738281 19.570312 C 31.789062 19.605469 31.839844 19.640625 31.871094 19.679688 C 32.121094 19.984375 32.257812 20.378906 32.492188 20.695312 C 32.457031 20.929688 32.425781 21.164062 32.421875 21.398438 Z M 32.8125 22.675781 C 32.820312 22.6875 32.832031 22.699219 32.839844 22.707031 C 32.824219 22.714844 32.804688 22.726562 32.789062 22.734375 C 32.796875 22.714844 32.804688 22.695312 32.8125 22.675781 Z M 32.21875 23.007812 C 32.230469 23.011719 32.246094 23.015625 32.261719 23.015625 C 32.246094 23.035156 32.230469 23.058594 32.214844 23.078125 C 32.214844 23.054688 32.21875 23.03125 32.21875 23.007812 Z M 31.546875 22.195312 C 31.539062 22.203125 31.53125 22.214844 31.527344 22.226562 C 31.523438 22.21875 31.523438 22.207031 31.519531 22.199219 C 31.527344 22.199219 31.535156 22.195312 31.546875 22.195312 Z M 31.085938 20.054688 C 31.082031 20.066406 31.078125 20.082031 31.078125 20.097656 C 31.070312 20.160156 31.0625 20.222656 31.054688 20.28125 C 31.019531 20.148438 30.988281 20.011719 30.953125 19.878906 C 30.996094 19.941406 31.039062 19.996094 31.085938 20.054688 Z M 30.554688 18.183594 C 30.558594 18.203125 30.5625 18.226562 30.5625 18.25 C 30.574219 18.332031 30.585938 18.417969 30.59375 18.5 C 30.574219 18.417969 30.550781 18.335938 30.53125 18.25 C 30.539062 18.226562 30.546875 18.207031 30.554688 18.183594 Z M 32.414062 22.777344 C 32.402344 22.691406 32.394531 22.605469 32.386719 22.519531 C 32.433594 22.488281 32.484375 22.46875 32.539062 22.453125 C 32.546875 22.453125 32.550781 22.457031 32.554688 22.460938 C 32.519531 22.574219 32.472656 22.675781 32.414062 22.777344 Z M 31.40625 21.714844 C 31.433594 21.703125 31.457031 21.683594 31.472656 21.652344 C 31.480469 21.640625 31.484375 21.632812 31.488281 21.625 C 31.5 21.644531 31.515625 21.667969 31.53125 21.691406 C 31.539062 21.703125 31.546875 21.710938 31.558594 21.722656 C 31.511719 21.730469 31.464844 21.746094 31.417969 21.761719 C 31.414062 21.746094 31.410156 21.730469 31.40625 21.714844 Z M 31.820312 21.691406 C 31.855469 21.644531 31.882812 21.597656 31.90625 21.550781 C 31.953125 21.601562 31.996094 21.652344 32.039062 21.703125 C 31.964844 21.695312 31.894531 21.691406 31.820312 21.691406 Z M 31.292969 18.976562 C 31.304688 19.015625 31.316406 19.054688 31.332031 19.09375 C 31.414062 19.324219 31.511719 19.570312 31.519531 19.820312 C 31.523438 19.878906 31.519531 19.933594 31.515625 19.992188 C 31.375 19.8125 31.203125 19.648438 31.125 19.417969 C 31.039062 19.175781 30.984375 18.929688 30.949219 18.675781 C 31.0625 18.777344 31.1875 18.863281 31.292969 18.976562 Z M 31.203125 18.675781 C 31.113281 18.625 31.023438 18.578125 30.941406 18.488281 C 30.933594 18.480469 30.925781 18.46875 30.917969 18.460938 C 30.859375 17.949219 30.851562 17.433594 30.785156 16.929688 C 30.808594 16.773438 30.832031 16.621094 30.859375 16.46875 C 31.019531 16.917969 31.128906 17.335938 31.113281 17.835938 C 31.101562 18.148438 31.132812 18.40625 31.203125 18.675781 Z M 28.972656 6.761719 C 29.46875 6.792969 29.886719 7.046875 30.175781 7.441406 C 30.851562 8.367188 30.847656 9.722656 30.871094 10.816406 C 30.894531 12.070312 30.796875 13.328125 30.640625 14.570312 C 30.550781 15.273438 30.441406 15.972656 30.324219 16.671875 C 30.300781 16.820312 30.265625 16.976562 30.230469 17.132812 C 29.941406 16.058594 29.644531 14.984375 29.347656 13.910156 C 29.265625 13.621094 29.183594 13.332031 29.109375 13.042969 C 29.085938 12.949219 29.035156 12.890625 28.96875 12.855469 C 29.089844 11.765625 29.148438 10.667969 29.113281 9.570312 C 29.109375 9.472656 29.058594 9.40625 28.988281 9.371094 C 29.078125 8.679688 29.089844 7.917969 28.574219 7.386719 C 28.4375 7.25 28.28125 7.136719 28.113281 7.046875 C 28.351562 6.851562 28.609375 6.738281 28.972656 6.761719 Z M 16.828125 13.777344 C 16.832031 13.789062 16.835938 13.796875 16.839844 13.804688 C 16.851562 13.828125 16.867188 13.847656 16.878906 13.871094 C 16.859375 13.859375 16.835938 13.851562 16.8125 13.847656 C 16.816406 13.824219 16.824219 13.800781 16.828125 13.777344 Z M 17.160156 13.449219 C 17.066406 13.414062 16.960938 13.4375 16.890625 13.496094 C 16.894531 13.46875 16.902344 13.445312 16.910156 13.421875 C 16.988281 13.417969 17.074219 13.425781 17.164062 13.445312 C 17.164062 13.445312 17.160156 13.449219 17.160156 13.449219 Z M 19.625 14.167969 C 19.546875 14.121094 19.441406 14.117188 19.355469 14.152344 C 19.355469 14.152344 19.355469 14.152344 19.355469 14.148438 C 19.316406 14.074219 19.261719 14.035156 19.199219 14.023438 C 19.195312 13.996094 19.183594 13.96875 19.167969 13.945312 C 19.332031 13.992188 19.492188 14.035156 19.65625 14.082031 C 19.640625 14.109375 19.628906 14.136719 19.625 14.167969 Z M 17.128906 15.058594 C 17.003906 14.921875 16.867188 14.789062 16.722656 14.664062 C 16.722656 14.664062 16.71875 14.664062 16.71875 14.660156 C 16.726562 14.59375 16.734375 14.523438 16.742188 14.453125 C 16.875 14.652344 17.003906 14.855469 17.128906 15.058594 Z M 20.234375 16.175781 C 20.207031 16.304688 20.152344 16.378906 20.074219 16.414062 C 20.160156 16.28125 20.191406 16.125 20.1875 15.964844 C 20.203125 15.964844 20.21875 15.964844 20.238281 15.964844 C 20.246094 16.039062 20.246094 16.113281 20.234375 16.175781 Z M 16.097656 15.726562 C 16.105469 15.742188 16.117188 15.757812 16.125 15.769531 C 16.125 15.769531 16.125 15.769531 16.125 15.773438 C 15.917969 16.371094 16.277344 16.585938 16.832031 16.664062 C 17.703125 16.789062 18.578125 16.890625 19.460938 16.945312 C 19.988281 16.980469 20.617188 17.054688 20.738281 16.394531 C 20.761719 16.257812 20.761719 16.117188 20.75 15.976562 C 20.835938 15.976562 20.921875 15.980469 21.011719 15.980469 C 23.085938 16.019531 25.183594 16.054688 26.714844 14.433594 C 27.824219 13.257812 28.410156 11.632812 28.640625 9.992188 C 28.597656 11.925781 28.460938 13.902344 27.945312 15.769531 C 27.707031 16.636719 27.234375 17.351562 26.382812 17.703125 C 25.65625 18.003906 24.84375 18.035156 24.066406 18.015625 C 22.0625 17.960938 20.050781 17.71875 18.050781 17.566406 C 16.03125 17.414062 13.96875 17.363281 11.960938 17.082031 C 11.078125 16.957031 10.203125 16.691406 9.550781 16.054688 C 9 15.511719 8.667969 14.796875 8.460938 14.0625 C 8.066406 12.65625 7.984375 11.066406 8.113281 9.613281 C 8.144531 9.257812 8.203125 8.894531 8.292969 8.546875 C 8.214844 9.902344 8.695312 11.339844 9.417969 12.429688 C 10.460938 14.011719 12.058594 14.945312 13.882812 15.359375 C 14.609375 15.523438 15.347656 15.640625 16.097656 15.726562 Z M 5.726562 9.070312 C 6.070312 7.773438 6.601562 6.324219 7.824219 5.609375 C 8.640625 5.136719 10.011719 4.878906 10.753906 5.589844 C 10.109375 5.644531 9.480469 5.789062 8.941406 6.191406 C 8.371094 6.617188 8 7.234375 7.765625 7.898438 C 7.390625 8.957031 7.320312 10.140625 7.382812 11.292969 C 6.539062 13.550781 5.789062 15.84375 5.128906 18.160156 C 4.867188 15.101562 4.929688 12.082031 5.726562 9.070312 Z M 4.191406 17.65625 C 4.195312 17.308594 4.316406 16.949219 4.4375 16.585938 C 4.394531 17.082031 4.335938 17.578125 4.261719 18.070312 C 4.242188 18.148438 4.21875 18.226562 4.199219 18.304688 C 4.191406 18.085938 4.1875 17.871094 4.191406 17.65625 Z M 2.453125 23.457031 C 2.347656 23.242188 2.253906 22.960938 2.078125 22.785156 C 2.179688 22.625 2.300781 22.484375 2.445312 22.371094 C 2.5 22.5 2.578125 22.621094 2.605469 22.773438 C 2.652344 23.039062 2.605469 23.308594 2.585938 23.574219 C 2.582031 23.625 2.582031 23.671875 2.578125 23.71875 C 2.535156 23.632812 2.492188 23.546875 2.453125 23.457031 Z M 32.386719 33.445312 C 30.707031 34.769531 28.914062 35.839844 26.875 36.519531 C 25.757812 36.890625 24.609375 37.152344 23.445312 37.320312 C 23.941406 37.050781 24.4375 36.777344 24.933594 36.503906 C 25.253906 36.390625 25.5625 36.257812 25.847656 36.082031 C 26.011719 35.984375 26.160156 35.867188 26.292969 35.746094 C 26.714844 35.484375 27.089844 35.167969 27.199219 34.679688 C 27.316406 34.609375 27.417969 34.515625 27.5 34.390625 C 27.75 34 27.730469 33.421875 27.761719 32.972656 C 27.835938 31.894531 27.777344 30.800781 27.339844 29.796875 C 26.949219 28.890625 26.316406 28.109375 25.617188 27.425781 C 24.796875 26.625 23.878906 25.898438 22.921875 25.269531 C 22.433594 24.945312 21.921875 24.652344 21.390625 24.40625 C 21.355469 24.390625 21.324219 24.378906 21.292969 24.367188 C 20.941406 24.152344 20.507812 24.011719 20.148438 23.898438 C 19.644531 23.742188 19.09375 23.644531 18.574219 23.765625 C 16.125 23.371094 13.496094 24.121094 11.542969 25.640625 C 9.195312 27.46875 8.023438 30.433594 8.328125 33.375 C 8.34375 33.535156 8.421875 33.660156 8.582031 33.707031 C 8.703125 33.746094 8.824219 33.78125 8.949219 33.820312 C 9.460938 34.210938 10.066406 34.457031 10.710938 34.578125 C 11.109375 34.65625 11.507812 34.652344 11.914062 34.683594 C 12.449219 34.726562 12.769531 35.046875 13.238281 35.25 C 14.003906 35.582031 14.933594 35.414062 15.746094 35.453125 C 15.988281 35.464844 16.230469 35.484375 16.472656 35.511719 C 16.632812 35.609375 16.789062 35.710938 16.941406 35.832031 C 17.320312 36.136719 17.667969 36.234375 18.148438 36.316406 C 18.765625 36.417969 19.390625 36.535156 20.015625 36.644531 C 20.035156 36.652344 20.054688 36.664062 20.074219 36.671875 C 20.285156 36.78125 20.492188 36.886719 20.703125 36.992188 C 21.039062 37.160156 21.375 37.335938 21.71875 37.496094 C 21.148438 37.53125 20.578125 37.546875 20.007812 37.542969 C 17.660156 37.53125 15.292969 37.226562 13.007812 36.707031 C 10.820312 36.214844 8.640625 35.34375 6.867188 33.957031 C 5.996094 33.28125 5.21875 32.476562 4.589844 31.570312 C 4.28125 31.121094 4.015625 30.648438 3.785156 30.152344 C 3.609375 29.777344 3.480469 29.386719 3.332031 29.003906 C 3.488281 27.628906 3.796875 26.257812 4.039062 25.042969 C 4.820312 21.128906 5.835938 17.265625 7.058594 13.464844 C 7.1875 13.0625 7.324219 12.65625 7.457031 12.253906 C 7.476562 12.441406 7.5 12.625 7.523438 12.808594 C 7.59375 13.347656 7.699219 13.898438 7.863281 14.425781 C 8 14.9375 8.230469 15.425781 8.53125 15.871094 C 8.652344 16.054688 8.789062 16.226562 8.9375 16.390625 C 8.9375 16.394531 8.941406 16.398438 8.941406 16.398438 C 8.953125 16.414062 8.964844 16.425781 8.976562 16.4375 C 9.1875 16.667969 9.414062 16.882812 9.65625 17.074219 C 10.480469 17.902344 11.449219 18.535156 12.667969 18.8125 C 13.6875 19.042969 14.75 19.183594 15.789062 19.28125 C 16.308594 19.332031 16.84375 19.371094 17.375 19.363281 C 18.394531 19.9375 19.542969 20.363281 20.710938 20.199219 C 21.179688 20.136719 21.578125 20.113281 22.050781 20.1875 C 22.390625 20.242188 22.730469 20.277344 23.078125 20.28125 C 23.335938 20.285156 23.609375 20.277344 23.878906 20.253906 C 24.507812 20.304688 25.140625 20.320312 25.765625 20.277344 C 26.535156 20.222656 27.351562 20.054688 27.957031 19.550781 C 28.796875 18.855469 28.835938 17.726562 28.953125 16.726562 C 29 16.296875 29.054688 15.863281 29.105469 15.433594 C 29.945312 18.527344 30.824219 21.609375 31.484375 24.753906 C 31.953125 26.996094 32.378906 29.285156 32.445312 31.582031 C 32.460938 32.203125 32.457031 32.828125 32.386719 33.445312 Z M 32.148438 34.582031 C 32.117188 34.554688 32.082031 34.539062 32.042969 34.523438 C 32.097656 34.480469 32.15625 34.4375 32.207031 34.390625 C 32.191406 34.457031 32.167969 34.519531 32.148438 34.582031 Z M 16.4375 37.984375 C 16.984375 38.230469 17.644531 38.371094 18.15625 38.503906 C 18.273438 38.535156 18.390625 38.566406 18.507812 38.59375 C 17.484375 38.570312 16.625 38.441406 15.808594 37.894531 C 16.019531 37.925781 16.226562 37.953125 16.4375 37.984375 Z M 19.339844 38.214844 C 19.34375 38.21875 19.351562 38.226562 19.355469 38.234375 C 19.308594 38.226562 19.261719 38.21875 19.214844 38.210938 C 19.257812 38.210938 19.296875 38.210938 19.339844 38.214844 Z M 30.90625 35.859375 C 30.898438 35.851562 30.886719 35.84375 30.878906 35.835938 C 30.90625 35.824219 30.933594 35.808594 30.960938 35.792969 C 30.945312 35.816406 30.925781 35.839844 30.90625 35.859375 Z M 27.289062 37.355469 C 27.253906 37.34375 27.21875 37.332031 27.183594 37.320312 C 27.226562 37.308594 27.265625 37.296875 27.308594 37.28125 C 27.296875 37.304688 27.292969 37.332031 27.289062 37.355469 Z M 23.722656 38.210938 C 23.589844 38.195312 23.453125 38.183594 23.320312 38.175781 C 23.308594 38.175781 23.300781 38.171875 23.289062 38.171875 C 23.433594 38.183594 23.574219 38.195312 23.71875 38.207031 C 23.71875 38.207031 23.722656 38.210938 23.722656 38.210938 Z M 27.796875 37.128906 C 27.800781 37.132812 27.800781 37.140625 27.804688 37.148438 C 27.796875 37.140625 27.789062 37.136719 27.78125 37.132812 C 27.789062 37.132812 27.792969 37.128906 27.796875 37.128906 Z M 25.785156 37.6875 C 25.789062 37.703125 25.792969 37.71875 25.796875 37.734375 C 25.75 37.726562 25.703125 37.71875 25.65625 37.714844 C 25.699219 37.703125 25.742188 37.695312 25.785156 37.6875 Z M 26.96875 38.605469 C 26.964844 38.59375 26.964844 38.585938 26.960938 38.578125 C 26.972656 38.566406 26.984375 38.554688 26.992188 38.542969 C 27.015625 38.554688 27.035156 38.566406 27.058594 38.574219 C 27.027344 38.582031 26.996094 38.59375 26.96875 38.605469 Z M 22.84375 37.019531 C 22.882812 37.042969 22.925781 37.066406 22.964844 37.085938 C 22.980469 37.097656 22.996094 37.101562 23.011719 37.105469 C 22.925781 37.148438 22.839844 37.191406 22.753906 37.230469 C 22.398438 37.390625 22.246094 37.292969 21.917969 37.140625 C 21.878906 37.121094 21.839844 37.105469 21.800781 37.085938 C 22.148438 37.09375 22.496094 37.070312 22.84375 37.019531 Z M 17.074219 35.597656 C 17.113281 35.605469 17.152344 35.613281 17.191406 35.617188 C 17.246094 35.65625 17.300781 35.691406 17.351562 35.726562 C 17.425781 35.777344 17.523438 35.757812 17.585938 35.699219 C 17.914062 35.773438 18.238281 35.867188 18.554688 35.980469 C 18.828125 36.074219 19.089844 36.195312 19.351562 36.324219 C 18.960938 36.273438 18.574219 36.222656 18.1875 36.164062 C 17.890625 36.121094 17.582031 36.089844 17.316406 35.941406 C 17.1875 35.867188 17.074219 35.769531 16.960938 35.675781 C 17.007812 35.664062 17.046875 35.640625 17.074219 35.597656 Z M 14.660156 34.996094 C 14.972656 34.949219 15.28125 34.964844 15.578125 35.03125 C 15.648438 35.066406 15.714844 35.105469 15.785156 35.140625 C 15.773438 35.140625 15.757812 35.136719 15.746094 35.136719 C 15.1875 35.109375 14.59375 35.171875 14.03125 35.105469 C 14.226562 35.078125 14.429688 35.03125 14.660156 34.996094 Z M 9.269531 30.230469 C 9.675781 29.808594 10.039062 29.351562 10.480469 28.957031 C 11.015625 28.480469 11.601562 28.050781 12.222656 27.679688 C 13.421875 26.96875 14.769531 26.476562 16.148438 26.25 C 18.996094 25.78125 21.957031 26.5625 24.269531 28.273438 C 24.90625 28.746094 25.496094 29.292969 26.015625 29.894531 C 26.398438 30.335938 26.769531 30.808594 26.964844 31.339844 C 27.007812 31.636719 27.027344 31.9375 27.023438 32.246094 C 27.023438 32.710938 27.03125 33.242188 26.929688 33.699219 C 26.859375 34.027344 26.714844 34.09375 26.40625 34.167969 C 26.113281 34.238281 25.8125 34.285156 25.511719 34.324219 C 24.445312 34.472656 23.363281 34.480469 22.285156 34.449219 C 20.101562 34.386719 17.917969 34.195312 15.742188 34.050781 C 13.472656 33.894531 11.183594 33.761719 8.996094 33.109375 C 8.921875 32.132812 9.015625 31.15625 9.269531 30.230469 Z M 23.355469 36.929688 C 23.320312 36.949219 23.285156 36.964844 23.246094 36.984375 C 23.25 36.972656 23.253906 36.960938 23.257812 36.949219 C 23.289062 36.941406 23.324219 36.933594 23.355469 36.929688 Z M 20.835938 35.136719 C 20.796875 35.132812 20.761719 35.128906 20.722656 35.125 C 20.78125 35.128906 20.84375 35.132812 20.902344 35.136719 C 20.882812 35.136719 20.859375 35.136719 20.835938 35.136719 Z M 22.011719 35.246094 C 21.867188 35.210938 21.71875 35.1875 21.570312 35.167969 C 22.003906 35.1875 22.433594 35.203125 22.867188 35.210938 C 23.386719 35.21875 23.90625 35.210938 24.421875 35.179688 C 23.636719 35.300781 22.828125 35.300781 22.011719 35.246094 Z M 19.574219 35.914062 C 19.617188 35.960938 19.664062 36.007812 19.714844 36.050781 C 19.523438 35.949219 19.332031 35.847656 19.140625 35.746094 C 19.285156 35.808594 19.425781 35.863281 19.574219 35.914062 Z M 23.304688 35.695312 C 23.3125 35.714844 23.324219 35.734375 23.339844 35.753906 C 23.347656 35.765625 23.355469 35.773438 23.363281 35.785156 C 23.324219 35.757812 23.285156 35.726562 23.246094 35.695312 C 23.265625 35.695312 23.285156 35.695312 23.304688 35.695312 Z M 24.675781 35.570312 C 24.671875 35.59375 24.671875 35.617188 24.667969 35.640625 C 24.628906 35.625 24.589844 35.605469 24.550781 35.589844 C 24.589844 35.582031 24.632812 35.578125 24.675781 35.570312 Z M 25.195312 35.464844 C 25.214844 35.457031 25.238281 35.453125 25.257812 35.449219 C 25.253906 35.464844 25.25 35.484375 25.242188 35.503906 C 25.226562 35.488281 25.210938 35.476562 25.195312 35.464844 Z M 25.824219 35.332031 C 25.800781 35.320312 25.78125 35.3125 25.757812 35.300781 C 25.785156 35.292969 25.816406 35.28125 25.84375 35.273438 C 25.835938 35.292969 25.832031 35.3125 25.824219 35.332031 Z M 22.347656 36.210938 C 22.367188 36.21875 22.386719 36.222656 22.40625 36.230469 C 22.421875 36.25 22.433594 36.265625 22.449219 36.285156 C 22.449219 36.285156 22.445312 36.285156 22.445312 36.285156 C 22.414062 36.257812 22.378906 36.234375 22.347656 36.210938 Z M 22.773438 35.816406 C 22.78125 35.828125 22.789062 35.839844 22.800781 35.847656 C 22.824219 35.875 22.851562 35.902344 22.875 35.929688 C 22.832031 35.898438 22.785156 35.867188 22.742188 35.832031 C 22.753906 35.828125 22.765625 35.824219 22.773438 35.816406 Z M 16.148438 34.785156 C 16.300781 34.804688 16.453125 34.828125 16.605469 34.851562 C 16.601562 34.855469 16.597656 34.863281 16.597656 34.871094 C 16.558594 34.894531 16.527344 34.929688 16.511719 34.972656 C 16.382812 34.898438 16.253906 34.835938 16.121094 34.785156 C 16.128906 34.785156 16.136719 34.785156 16.148438 34.785156 Z M 13.40625 34.714844 C 13.28125 34.671875 13.160156 34.609375 13.039062 34.542969 C 13.484375 34.589844 13.925781 34.625 14.371094 34.660156 C 14.050781 34.734375 13.734375 34.832031 13.40625 34.714844 Z M 19.710938 24.355469 C 19.753906 24.363281 19.789062 24.359375 19.816406 24.34375 C 20.160156 24.578125 20.46875 24.824219 20.851562 24.992188 C 21.289062 25.183594 21.710938 25.410156 22.117188 25.65625 C 22.917969 26.144531 23.671875 26.71875 24.382812 27.332031 C 25.09375 27.941406 25.777344 28.613281 26.277344 29.410156 C 26.363281 29.546875 26.4375 29.6875 26.507812 29.828125 C 26.132812 29.398438 25.722656 29.019531 25.402344 28.730469 C 24.292969 27.722656 22.980469 26.945312 21.570312 26.4375 C 18.679688 25.398438 15.472656 25.609375 12.746094 27.023438 C 11.992188 27.414062 11.277344 27.890625 10.625 28.441406 C 10.253906 28.757812 9.851562 29.109375 9.507812 29.5 C 9.988281 28.226562 10.789062 27.078125 11.890625 26.191406 C 14.03125 24.46875 17.035156 23.867188 19.710938 24.355469 Z M 23.648438 40.332031 C 23.480469 40.179688 23.324219 39.984375 23.121094 39.820312 C 22.828125 39.589844 22.464844 39.488281 22.109375 39.414062 C 21.234375 39.230469 20.390625 39.210938 19.632812 38.824219 C 19.996094 38.886719 20.367188 38.941406 20.734375 38.984375 C 21.539062 39.082031 22.347656 39.082031 23.15625 39.15625 C 23.519531 39.191406 23.886719 39.246094 24.234375 39.359375 C 24.355469 39.394531 25.027344 39.773438 25.25 39.867188 C 24.722656 40.050781 24.1875 40.203125 23.648438 40.332031 Z M 34.589844 31.761719 C 34.078125 30.6875 34.082031 29.488281 34.109375 28.324219 C 34.136719 27.144531 34.230469 25.949219 34.175781 24.765625 C 34.132812 23.847656 33.925781 22.875 33.203125 22.246094 C 33.058594 22.117188 32.890625 22.003906 32.714844 21.914062 C 32.757812 21.898438 32.796875 21.871094 32.820312 21.828125 C 33.011719 21.4375 33.042969 21.007812 33.097656 20.578125 C 33.175781 20 33.238281 19.425781 33.289062 18.84375 C 33.378906 17.753906 33.425781 16.65625 33.417969 15.558594 C 33.410156 13.402344 33.210938 11.25 32.828125 9.128906 C 32.503906 7.3125 32.171875 5.257812 30.683594 3.996094 C 30.632812 3.953125 30.582031 3.914062 30.527344 3.875 C 30.546875 3.859375 30.550781 3.835938 30.53125 3.816406 C 30.300781 3.613281 30.042969 3.472656 29.765625 3.378906 C 28.722656 2.832031 27.5 2.640625 26.332031 2.863281 C 24.648438 3.183594 22.855469 4.460938 22.238281 6.105469 C 21.039062 5.980469 19.835938 5.875 18.628906 5.792969 C 17.632812 5.722656 16.636719 5.671875 15.640625 5.632812 C 15.511719 5.289062 15.386719 4.953125 15.195312 4.625 C 14.917969 4.144531 14.582031 3.691406 14.214844 3.277344 C 13.558594 2.535156 12.785156 1.945312 11.878906 1.546875 C 10.179688 0.796875 8.105469 0.339844 6.332031 1.09375 C 4.367188 1.921875 3.078125 3.75 2.382812 5.703125 C 1.53125 8.09375 1.332031 10.78125 1.230469 13.296875 C 1.167969 14.785156 1.15625 16.292969 1.289062 17.777344 C 1.414062 19.191406 1.578125 20.664062 1.886719 22.058594 C 0.886719 23.039062 1.046875 24.589844 1.273438 25.847656 C 1.429688 26.71875 1.640625 27.609375 1.464844 28.496094 C 1.316406 29.253906 0.96875 29.96875 0.957031 30.753906 C 0.9375 31.890625 1.710938 32.773438 2.796875 32.621094 C 2.867188 32.972656 2.957031 33.320312 3.078125 33.660156 C 3.664062 35.289062 4.886719 36.320312 6.238281 37.316406 C 7.023438 37.894531 7.777344 38.464844 8.636719 38.921875 C 10.519531 39.921875 12.585938 40.59375 14.667969 41.011719 C 19.796875 42.046875 25.460938 41.519531 29.714844 38.246094 C 30.675781 37.507812 31.765625 36.601562 32.398438 35.550781 C 32.738281 34.992188 32.875 34.328125 32.953125 33.683594 C 32.992188 33.617188 33 33.546875 32.976562 33.484375 C 33.003906 33.230469 33.023438 32.972656 33.035156 32.710938 C 33.550781 32.65625 34.050781 32.425781 34.488281 32.152344 C 34.628906 32.066406 34.660156 31.90625 34.589844 31.761719 " fill-opacity="1" fill-rule="nonzero"/></g><path fill="#314e52" d="M 12.535156 6.945312 C 12.527344 6.945312 12.523438 6.960938 12.535156 6.960938 C 14.828125 7.300781 17.175781 7.21875 19.476562 7.492188 C 19.523438 7.5 19.542969 7.425781 19.5 7.402344 C 19.09375 7.203125 18.628906 7.199219 18.183594 7.171875 C 17.554688 7.136719 16.925781 7.109375 16.300781 7.078125 C 15.050781 7.015625 13.785156 6.898438 12.535156 6.945312 " fill-opacity="1" fill-rule="nonzero"/><path fill="#314e52" d="M 20.546875 7.402344 C 21.417969 7.636719 22.34375 7.753906 23.242188 7.816406 C 23.257812 7.816406 23.261719 7.792969 23.246094 7.789062 C 22.359375 7.605469 21.457031 7.429688 20.554688 7.324219 C 20.511719 7.316406 20.503906 7.390625 20.546875 7.402344 " fill-opacity="1" fill-rule="nonzero"/><path fill="#314e52" d="M 6.871094 16.265625 C 6.539062 17.707031 6.28125 19.164062 5.902344 20.59375 C 5.523438 22.027344 5.074219 23.4375 4.570312 24.828125 C 4.558594 24.863281 4.613281 24.875 4.625 24.84375 C 5.738281 22.148438 6.671875 19.191406 6.910156 16.273438 C 6.910156 16.25 6.875 16.246094 6.871094 16.265625 " fill-opacity="1" fill-rule="nonzero"/><path fill="#314e52" d="M 4.179688 25.769531 C 4.046875 26.152344 3.964844 26.648438 3.996094 27.054688 C 4 27.105469 4.070312 27.117188 4.089844 27.066406 C 4.222656 26.683594 4.269531 26.179688 4.242188 25.777344 C 4.238281 25.742188 4.191406 25.734375 4.179688 25.769531 " fill-opacity="1" fill-rule="nonzero"/><path fill="#314e52" d="M 7.175781 14.726562 C 7.078125 15.222656 6.984375 15.78125 7.054688 16.289062 C 7.058594 16.3125 7.101562 16.3125 7.105469 16.289062 C 7.207031 15.789062 7.191406 15.238281 7.203125 14.730469 C 7.203125 14.714844 7.179688 14.710938 7.175781 14.726562 " fill-opacity="1" fill-rule="nonzero"/><path fill="#314e52" d="M 7.492188 15.339844 C 7.449219 15.519531 7.40625 15.699219 7.363281 15.878906 C 7.363281 15.886719 7.371094 15.890625 7.375 15.882812 C 7.417969 15.703125 7.464844 15.523438 7.507812 15.34375 C 7.511719 15.332031 7.496094 15.328125 7.492188 15.339844 " fill-opacity="1" fill-rule="nonzero"/><path fill="#314e52" d="M 24.246094 7.769531 C 24.664062 7.851562 25.105469 7.964844 25.53125 7.96875 C 25.550781 7.96875 25.558594 7.9375 25.535156 7.933594 C 25.128906 7.8125 24.667969 7.796875 24.25 7.753906 C 24.238281 7.75 24.238281 7.769531 24.246094 7.769531 " fill-opacity="1" fill-rule="nonzero"/><path fill="#314e52" d="M 25.867188 8.011719 C 26.558594 8.050781 27.238281 8.3125 27.828125 8.664062 C 27.84375 8.671875 27.859375 8.652344 27.847656 8.644531 C 27.253906 8.183594 26.605469 7.996094 25.867188 7.945312 C 25.824219 7.941406 25.824219 8.011719 25.867188 8.011719 " fill-opacity="1" fill-rule="nonzero"/><path fill="#314e52" d="M 26.082031 8.5 C 25.644531 8.382812 25.175781 8.351562 24.726562 8.355469 C 24.710938 8.355469 24.710938 8.375 24.726562 8.375 C 25.183594 8.382812 25.625 8.453125 26.074219 8.527344 C 26.089844 8.53125 26.097656 8.503906 26.082031 8.5 " fill-opacity="1" fill-rule="nonzero"/><path fill="#314e52" d="M 23.109375 16.566406 C 23.667969 16.625 24.230469 16.664062 24.792969 16.65625 C 24.847656 16.65625 24.84375 16.582031 24.792969 16.574219 C 24.234375 16.515625 23.671875 16.5 23.109375 16.503906 C 23.070312 16.503906 23.074219 16.5625 23.109375 16.566406 " fill-opacity="1" fill-rule="nonzero"/><path fill="#314e52" d="M 29.414062 20.171875 C 29.402344 20.140625 29.351562 20.152344 29.363281 20.1875 C 29.769531 21.527344 30.128906 22.902344 30.328125 24.289062 C 30.539062 25.75 30.53125 27.199219 30.566406 28.667969 C 30.570312 28.71875 30.636719 28.714844 30.640625 28.667969 C 30.777344 27.277344 30.636719 25.832031 30.441406 24.449219 C 30.234375 22.988281 29.917969 21.5625 29.414062 20.171875 " fill-opacity="1" fill-rule="nonzero"/><path fill="#314e52" d="M 31.1875 26.179688 C 31.332031 26.941406 31.433594 27.699219 31.507812 28.46875 C 31.507812 28.484375 31.535156 28.488281 31.535156 28.46875 C 31.546875 27.695312 31.4375 26.914062 31.226562 26.171875 C 31.21875 26.144531 31.183594 26.15625 31.1875 26.179688 " fill-opacity="1" fill-rule="nonzero"/><path fill="#314e52" d="M 31.589844 30.355469 C 31.589844 30.445312 31.589844 30.535156 31.589844 30.625 C 31.589844 30.628906 31.597656 30.628906 31.597656 30.625 C 31.597656 30.535156 31.597656 30.445312 31.597656 30.355469 C 31.597656 30.347656 31.589844 30.347656 31.589844 30.355469 " fill-opacity="1" fill-rule="nonzero"/><path fill="#314e52" d="M 4.703125 27.519531 C 4.414062 28.199219 4.246094 28.949219 4.359375 29.691406 C 4.363281 29.738281 4.4375 29.726562 4.4375 29.679688 C 4.441406 28.9375 4.484375 28.234375 4.730469 27.527344 C 4.734375 27.507812 4.707031 27.5 4.703125 27.519531 " fill-opacity="1" fill-rule="nonzero"/><path fill="#314e52" d="M 18.460938 27.203125 C 19.964844 27.257812 21.398438 27.832031 22.683594 28.585938 C 24.003906 29.359375 24.699219 30.539062 25.554688 31.75 C 25.578125 31.78125 25.625 31.753906 25.609375 31.71875 C 24.945312 30.410156 24.023438 29.226562 22.742188 28.484375 C 21.480469 27.753906 19.941406 27.105469 18.460938 27.160156 C 18.433594 27.160156 18.433594 27.203125 18.460938 27.203125 " fill-opacity="1" fill-rule="nonzero"/><path fill="#314e52" d="M 25.988281 33.382812 C 25.988281 33 25.96875 32.59375 25.832031 32.230469 C 25.816406 32.179688 25.730469 32.179688 25.730469 32.242188 C 25.75 32.628906 25.84375 33.015625 25.914062 33.394531 C 25.921875 33.433594 25.988281 33.421875 25.988281 33.382812 " fill-opacity="1" fill-rule="nonzero"/><path fill="#314e52" d="M 10.617188 10.933594 C 10.386719 10.496094 10.171875 10.046875 10.027344 9.574219 C 9.875 9.0625 9.878906 8.574219 9.886719 8.050781 C 9.886719 8.027344 9.855469 8.019531 9.84375 8.039062 C 9.484375 8.886719 9.9375 9.929688 10.320312 10.695312 C 10.808594 11.675781 11.433594 12.601562 12.222656 13.359375 C 12.25 13.386719 12.289062 13.347656 12.265625 13.320312 C 11.652344 12.566406 11.074219 11.792969 10.617188 10.933594 " fill-opacity="1" fill-rule="nonzero"/><path fill="#314e52" d="M 13.21875 13.652344 C 13.214844 13.648438 13.210938 13.644531 13.207031 13.648438 C 13.1875 13.644531 13.167969 13.640625 13.148438 13.636719 C 13.117188 13.628906 13.097656 13.671875 13.128906 13.6875 C 13.148438 13.699219 13.175781 13.710938 13.199219 13.722656 C 13.195312 13.734375 13.214844 13.738281 13.21875 13.730469 C 13.601562 13.910156 14.011719 14.039062 14.417969 14.148438 C 14.449219 14.15625 14.46875 14.109375 14.441406 14.097656 C 14.046875 13.921875 13.640625 13.753906 13.21875 13.652344 " fill-opacity="1" fill-rule="nonzero"/><path fill="#314e52" d="M 2.394531 13.566406 C 2.398438 12.558594 2.371094 11.550781 2.472656 10.542969 C 2.578125 9.476562 2.789062 8.429688 2.988281 7.375 C 2.996094 7.34375 2.949219 7.328125 2.9375 7.363281 C 2.664062 8.335938 2.515625 9.34375 2.425781 10.351562 C 2.332031 11.417969 2.253906 12.496094 2.34375 13.566406 C 2.347656 13.601562 2.394531 13.601562 2.394531 13.566406 " fill-opacity="1" fill-rule="nonzero"/><path fill="#314e52" d="M 2.269531 17.539062 C 2.304688 16.574219 2.285156 15.609375 2.347656 14.644531 C 2.351562 14.597656 2.277344 14.597656 2.273438 14.644531 C 2.183594 15.601562 2.117188 16.582031 2.210938 17.539062 C 2.214844 17.578125 2.269531 17.578125 2.269531 17.539062 " fill-opacity="1" fill-rule="nonzero"/><g fill="#000000" fill-opacity="1"><g transform="translate(55.305454, 29.063887)"><g><path d="M -0.03125 0 L -0.09375 -1.234375 L 1.171875 -1.625 L 6.171875 -13.703125 L 8.234375 -14.859375 L 13.875 -1.625 L 15.15625 -1.234375 L 15.078125 0 L 8.5 0 L 8.421875 -1.234375 L 10 -1.625 L 8.671875 -4.796875 L 8.40625 -5.625 L 5.9375 -11.421875 L 6.65625 -11.234375 L 4.625 -5.703125 L 4.390625 -4.96875 L 3.21875 -1.625 L 4.796875 -1.234375 L 4.71875 0 Z M 3.8125 -4.171875 L 3.8125 -5.84375 C 4.132812 -5.832031 4.5 -5.8125 4.90625 -5.78125 C 5.320312 -5.757812 5.875 -5.75 6.5625 -5.75 C 7.21875 -5.75 7.757812 -5.757812 8.1875 -5.78125 C 8.625 -5.8125 9 -5.832031 9.3125 -5.84375 L 9.3125 -4.203125 C 9 -4.203125 8.617188 -4.207031 8.171875 -4.21875 C 7.734375 -4.238281 7.195312 -4.25 6.5625 -4.25 C 5.882812 -4.25 5.332031 -4.238281 4.90625 -4.21875 C 4.488281 -4.207031 4.125 -4.191406 3.8125 -4.171875 Z M 3.8125 -4.171875 "/></g></g><g transform="translate(70.264642, 29.063887)"><g><path d="M 0.484375 0 L 0.421875 -1.125 L 1.9375 -1.546875 C 1.957031 -1.609375 1.972656 -1.757812 1.984375 -2 C 2.003906 -2.238281 2.019531 -2.535156 2.03125 -2.890625 C 2.050781 -3.242188 2.0625 -3.613281 2.0625 -4 L 2.09375 -5.84375 C 2.09375 -6.332031 2.070312 -6.769531 2.03125 -7.15625 C 2 -7.539062 1.941406 -7.945312 1.859375 -8.375 L 0.296875 -8.71875 L 0.296875 -9.828125 L 4.546875 -10.9375 L 5.203125 -10.515625 L 5.109375 -8.578125 L 5.1875 -8.546875 C 5.644531 -9.460938 6.113281 -10.082031 6.59375 -10.40625 C 7.082031 -10.738281 7.585938 -10.90625 8.109375 -10.90625 C 8.546875 -10.90625 8.925781 -10.78125 9.25 -10.53125 C 9.582031 -10.289062 9.75 -9.910156 9.75 -9.390625 C 9.75 -8.859375 9.570312 -8.445312 9.21875 -8.15625 C 8.875 -7.863281 8.453125 -7.71875 7.953125 -7.71875 C 7.566406 -7.71875 7.21875 -7.78125 6.90625 -7.90625 C 6.59375 -8.039062 6.253906 -8.285156 5.890625 -8.640625 L 6.578125 -8.59375 C 6.316406 -8.414062 6.078125 -8.1875 5.859375 -7.90625 C 5.640625 -7.632812 5.4375 -7.316406 5.25 -6.953125 L 5.28125 -5.015625 C 5.300781 -4.410156 5.316406 -3.863281 5.328125 -3.375 C 5.347656 -2.894531 5.363281 -2.492188 5.375 -2.171875 C 5.394531 -1.847656 5.40625 -1.640625 5.40625 -1.546875 L 7.546875 -1.171875 L 7.46875 0 Z M 0.484375 0 "/></g></g><g transform="translate(80.360251, 29.063887)"><g><path d="M 6.640625 0.203125 C 5.484375 0.203125 4.472656 -0.03125 3.609375 -0.5 C 2.742188 -0.96875 2.0625 -1.613281 1.5625 -2.4375 C 1.070312 -3.269531 0.828125 -4.21875 0.828125 -5.28125 C 0.828125 -6.488281 1.101562 -7.519531 1.65625 -8.375 C 2.21875 -9.226562 2.945312 -9.875 3.84375 -10.3125 C 4.75 -10.757812 5.710938 -10.984375 6.734375 -10.984375 C 7.828125 -10.984375 8.785156 -10.753906 9.609375 -10.296875 C 10.441406 -9.835938 11.09375 -9.191406 11.5625 -8.359375 C 12.03125 -7.535156 12.265625 -6.59375 12.265625 -5.53125 C 12.265625 -4.445312 12.007812 -3.472656 11.5 -2.609375 C 10.988281 -1.753906 10.3125 -1.070312 9.46875 -0.5625 C 8.625 -0.0507812 7.679688 0.203125 6.640625 0.203125 Z M 6.875 -1.375 C 7.289062 -1.375 7.640625 -1.503906 7.921875 -1.765625 C 8.210938 -2.023438 8.429688 -2.410156 8.578125 -2.921875 C 8.734375 -3.429688 8.8125 -4.035156 8.8125 -4.734375 C 8.8125 -6.148438 8.585938 -7.296875 8.140625 -8.171875 C 7.691406 -9.054688 7.09375 -9.5 6.34375 -9.5 C 5.726562 -9.5 5.238281 -9.179688 4.875 -8.546875 C 4.507812 -7.921875 4.328125 -7.070312 4.328125 -6 C 4.328125 -5.125 4.4375 -4.332031 4.65625 -3.625 C 4.875 -2.925781 5.175781 -2.375 5.5625 -1.96875 C 5.945312 -1.570312 6.382812 -1.375 6.875 -1.375 Z M 6.875 -1.375 "/></g></g><g transform="translate(93.452611, 29.063887)"><g><path d="M 13.265625 0.09375 L 9.015625 -9.265625 L 7.859375 -9.65625 L 7.9375 -10.78125 L 13.90625 -10.78125 L 13.953125 -9.65625 L 12.671875 -9.265625 L 15.1875 -3.265625 L 14.546875 -3.265625 L 17.140625 -9.265625 L 15.875 -9.65625 L 15.9375 -10.78125 L 20.125 -10.78125 L 20.1875 -9.65625 L 19.046875 -9.265625 L 14.34375 0.09375 Z M 5.484375 0.09375 L 1.109375 -9.265625 L -0.046875 -9.65625 L 0.03125 -10.78125 L 5.9375 -10.78125 L 6.015625 -9.65625 L 4.859375 -9.265625 L 7.5 -3.265625 L 6.75 -3.265625 L 9.578125 -9.28125 L 10.484375 -7.640625 L 6.5625 0.09375 Z M 5.484375 0.09375 "/></g></g><g transform="translate(113.471885, 29.063887)"><g><path d="M 13.265625 0.09375 L 9.015625 -9.265625 L 7.859375 -9.65625 L 7.9375 -10.78125 L 13.90625 -10.78125 L 13.953125 -9.65625 L 12.671875 -9.265625 L 15.1875 -3.265625 L 14.546875 -3.265625 L 17.140625 -9.265625 L 15.875 -9.65625 L 15.9375 -10.78125 L 20.125 -10.78125 L 20.1875 -9.65625 L 19.046875 -9.265625 L 14.34375 0.09375 Z M 5.484375 0.09375 L 1.109375 -9.265625 L -0.046875 -9.65625 L 0.03125 -10.78125 L 5.9375 -10.78125 L 6.015625 -9.65625 L 4.859375 -9.265625 L 7.5 -3.265625 L 6.75 -3.265625 L 9.578125 -9.28125 L 10.484375 -7.640625 L 6.5625 0.09375 Z M 5.484375 0.09375 "/></g></g><g transform="translate(133.491159, 29.063887)"><g><path d="M 4.625 0.203125 C 3.863281 0.203125 3.207031 0.0390625 2.65625 -0.28125 C 2.113281 -0.613281 1.695312 -1.007812 1.40625 -1.46875 C 1.125 -1.925781 0.984375 -2.363281 0.984375 -2.78125 C 0.984375 -3.382812 1.164062 -3.878906 1.53125 -4.265625 C 1.90625 -4.660156 2.476562 -4.972656 3.25 -5.203125 L 7.09375 -6.34375 L 7.09375 -7.21875 C 7.09375 -7.5625 6.984375 -7.882812 6.765625 -8.1875 C 6.546875 -8.488281 6.253906 -8.738281 5.890625 -8.9375 C 5.535156 -9.132812 5.148438 -9.234375 4.734375 -9.234375 C 4.472656 -9.234375 4.289062 -9.171875 4.1875 -9.046875 C 4.082031 -8.929688 4.015625 -8.691406 3.984375 -8.328125 L 3.859375 -6.828125 C 3.035156 -6.660156 2.363281 -6.6875 1.84375 -6.90625 C 1.332031 -7.132812 1.078125 -7.503906 1.078125 -8.015625 C 1.078125 -8.316406 1.238281 -8.628906 1.5625 -8.953125 C 1.894531 -9.285156 2.300781 -9.59375 2.78125 -9.875 C 3.269531 -10.164062 3.765625 -10.414062 4.265625 -10.625 C 4.773438 -10.832031 5.226562 -10.953125 5.625 -10.984375 C 7.0625 -10.984375 8.207031 -10.648438 9.0625 -9.984375 C 9.925781 -9.316406 10.359375 -8.429688 10.359375 -7.328125 L 10.296875 -3.90625 C 10.296875 -3.445312 10.304688 -3.085938 10.328125 -2.828125 C 10.347656 -2.578125 10.398438 -2.375 10.484375 -2.21875 L 12.09375 -1.921875 L 12.09375 -0.890625 L 10.484375 -0.171875 C 10.210938 -0.0546875 9.945312 0.03125 9.6875 0.09375 C 9.4375 0.164062 9.195312 0.203125 8.96875 0.203125 C 8.332031 0.203125 7.878906 -0.125 7.609375 -0.78125 L 7.203125 -1.921875 L 7.71875 -1.796875 C 7.207031 -1.171875 6.6875 -0.679688 6.15625 -0.328125 C 5.625 0.0234375 5.113281 0.203125 4.625 0.203125 Z M 5.875 -2.015625 C 6.101562 -2.015625 6.320312 -2.054688 6.53125 -2.140625 C 6.75 -2.234375 6.945312 -2.375 7.125 -2.5625 L 7.125 -4.96875 L 5.453125 -4.671875 C 5.054688 -4.597656 4.769531 -4.460938 4.59375 -4.265625 C 4.414062 -4.078125 4.328125 -3.828125 4.328125 -3.515625 C 4.328125 -3.117188 4.476562 -2.769531 4.78125 -2.46875 C 5.082031 -2.164062 5.445312 -2.015625 5.875 -2.015625 Z M 5.875 -2.015625 "/></g></g><g transform="translate(145.772922, 29.063887)"><g><path d="M 0.375 0 L 0.296875 -1.15625 L 1.9375 -1.546875 C 1.957031 -1.609375 1.972656 -1.757812 1.984375 -2 C 2.003906 -2.238281 2.019531 -2.535156 2.03125 -2.890625 C 2.050781 -3.242188 2.0625 -3.613281 2.0625 -4 L 2.09375 -5.84375 C 2.09375 -6.332031 2.070312 -6.769531 2.03125 -7.15625 C 2 -7.539062 1.941406 -7.945312 1.859375 -8.375 L 0.21875 -8.71875 L 0.21875 -9.828125 L 4.734375 -10.9375 L 5.40625 -10.515625 C 5.351562 -9.992188 5.3125 -9.460938 5.28125 -8.921875 C 5.257812 -8.390625 5.25 -7.789062 5.25 -7.125 L 5.25 -4.03125 C 5.25 -3.488281 5.257812 -2.972656 5.28125 -2.484375 C 5.3125 -1.992188 5.351562 -1.679688 5.40625 -1.546875 L 7.03125 -1.15625 L 6.953125 0 Z M 3.703125 -12.953125 C 3.035156 -12.953125 2.515625 -13.148438 2.140625 -13.546875 C 1.773438 -13.953125 1.59375 -14.414062 1.59375 -14.9375 C 1.59375 -15.457031 1.773438 -15.914062 2.140625 -16.3125 C 2.515625 -16.71875 3.035156 -16.921875 3.703125 -16.921875 C 4.378906 -16.921875 4.890625 -16.71875 5.234375 -16.3125 C 5.585938 -15.914062 5.765625 -15.457031 5.765625 -14.9375 C 5.765625 -14.414062 5.585938 -13.953125 5.234375 -13.546875 C 4.890625 -13.148438 4.378906 -12.953125 3.703125 -12.953125 Z M 3.703125 -12.953125 "/></g></g><g transform="translate(153.092853, 29.063887)"><g/></g><g transform="translate(157.931867, 29.063887)"><g><path d="M 0.9375 0 L 0.859375 -1.234375 L 2.40625 -1.625 C 2.4375 -1.707031 2.460938 -1.921875 2.484375 -2.265625 C 2.515625 -2.609375 2.535156 -3.050781 2.546875 -3.59375 C 2.566406 -4.144531 2.578125 -4.75 2.578125 -5.40625 L 2.578125 -8.984375 C 2.578125 -9.671875 2.566406 -10.289062 2.546875 -10.84375 C 2.535156 -11.394531 2.515625 -11.84375 2.484375 -12.1875 C 2.460938 -12.539062 2.4375 -12.742188 2.40625 -12.796875 L 0.859375 -13.1875 L 0.9375 -14.421875 L 7.546875 -14.421875 L 7.609375 -13.1875 L 6.046875 -12.796875 C 6.015625 -12.734375 5.984375 -12.523438 5.953125 -12.171875 C 5.929688 -11.816406 5.914062 -11.363281 5.90625 -10.8125 C 5.894531 -10.269531 5.890625 -9.660156 5.890625 -8.984375 L 5.890625 -5.40625 C 5.890625 -4.769531 5.894531 -4.179688 5.90625 -3.640625 C 5.914062 -3.097656 5.929688 -2.648438 5.953125 -2.296875 C 5.984375 -1.941406 6.015625 -1.71875 6.046875 -1.625 L 7.609375 -1.234375 L 7.546875 0 Z M 0.9375 0 "/></g></g><g transform="translate(166.406284, 29.063887)"><g><path d="M 0.46875 0 L 0.390625 -1.125 L 1.921875 -1.546875 C 1.929688 -1.609375 1.941406 -1.753906 1.953125 -1.984375 C 1.972656 -2.210938 1.988281 -2.503906 2 -2.859375 C 2.019531 -3.210938 2.03125 -3.59375 2.03125 -4 L 2.0625 -5.875 C 2.0625 -6.382812 2.046875 -6.820312 2.015625 -7.1875 C 1.984375 -7.550781 1.925781 -7.945312 1.84375 -8.375 L 0.265625 -8.71875 L 0.265625 -9.828125 L 4.59375 -10.9375 L 5.28125 -10.515625 L 5.140625 -9.0625 L 5.203125 -9.046875 C 5.710938 -9.691406 6.273438 -10.175781 6.890625 -10.5 C 7.503906 -10.820312 8.144531 -10.984375 8.8125 -10.984375 C 9.519531 -10.984375 10.148438 -10.8125 10.703125 -10.46875 C 11.265625 -10.125 11.703125 -9.617188 12.015625 -8.953125 C 12.335938 -8.285156 12.5 -7.488281 12.5 -6.5625 L 12.5 -4.03125 C 12.5 -3.46875 12.503906 -2.945312 12.515625 -2.46875 C 12.535156 -1.988281 12.570312 -1.679688 12.625 -1.546875 L 14.15625 -1.125 L 14.078125 0 L 7.90625 0 L 7.84375 -1.125 L 9.234375 -1.546875 C 9.265625 -1.710938 9.285156 -1.925781 9.296875 -2.1875 C 9.316406 -2.445312 9.332031 -2.738281 9.34375 -3.0625 C 9.351562 -3.394531 9.359375 -3.707031 9.359375 -4 L 9.359375 -6.0625 C 9.359375 -6.6875 9.265625 -7.191406 9.078125 -7.578125 C 8.890625 -7.960938 8.644531 -8.242188 8.34375 -8.421875 C 8.039062 -8.609375 7.703125 -8.703125 7.328125 -8.703125 C 6.910156 -8.703125 6.519531 -8.609375 6.15625 -8.421875 C 5.800781 -8.242188 5.484375 -7.984375 5.203125 -7.640625 L 5.203125 -4.03125 C 5.203125 -3.46875 5.210938 -2.945312 5.234375 -2.46875 C 5.265625 -1.988281 5.304688 -1.679688 5.359375 -1.546875 L 6.828125 -1.125 L 6.75 0 Z M 0.46875 0 "/></g></g><g transform="translate(180.849637, 29.063887)"><g><path d="M 9.328125 0.3125 L 8.671875 -0.046875 L 8.703125 -1.640625 L 8.625 -1.671875 C 8.21875 -0.960938 7.757812 -0.460938 7.25 -0.171875 C 6.738281 0.109375 6.210938 0.25 5.671875 0.25 C 4.804688 0.25 4.003906 0.03125 3.265625 -0.40625 C 2.523438 -0.851562 1.929688 -1.472656 1.484375 -2.265625 C 1.046875 -3.066406 0.828125 -3.988281 0.828125 -5.03125 C 0.828125 -5.945312 1 -6.769531 1.34375 -7.5 C 1.6875 -8.226562 2.144531 -8.847656 2.71875 -9.359375 C 3.300781 -9.878906 3.941406 -10.273438 4.640625 -10.546875 C 5.347656 -10.816406 6.070312 -10.953125 6.8125 -10.953125 C 7.113281 -10.953125 7.425781 -10.921875 7.75 -10.859375 C 8.082031 -10.804688 8.359375 -10.722656 8.578125 -10.609375 C 8.578125 -10.921875 8.570312 -11.273438 8.5625 -11.671875 C 8.550781 -12.066406 8.539062 -12.453125 8.53125 -12.828125 C 8.53125 -13.203125 8.523438 -13.546875 8.515625 -13.859375 C 8.503906 -14.171875 8.488281 -14.414062 8.46875 -14.59375 L 6.640625 -14.859375 L 6.578125 -15.921875 L 11.28125 -17.125 L 11.9375 -16.703125 C 11.882812 -15.691406 11.835938 -14.753906 11.796875 -13.890625 C 11.765625 -13.035156 11.75 -12.128906 11.75 -11.171875 L 11.71875 -5.484375 C 11.71875 -4.679688 11.738281 -4.03125 11.78125 -3.53125 C 11.820312 -3.03125 11.859375 -2.597656 11.890625 -2.234375 L 13.515625 -1.859375 L 13.515625 -0.8125 Z M 6.859375 -2.140625 C 7.117188 -2.140625 7.414062 -2.21875 7.75 -2.375 C 8.082031 -2.539062 8.363281 -2.8125 8.59375 -3.1875 L 8.59375 -8.640625 C 8.382812 -8.953125 8.125 -9.171875 7.8125 -9.296875 C 7.5 -9.421875 7.1875 -9.484375 6.875 -9.484375 C 6.101562 -9.484375 5.472656 -9.160156 4.984375 -8.515625 C 4.492188 -7.878906 4.25 -7.003906 4.25 -5.890625 C 4.25 -4.679688 4.5 -3.753906 5 -3.109375 C 5.507812 -2.460938 6.128906 -2.140625 6.859375 -2.140625 Z M 6.859375 -2.140625 "/></g></g><g transform="translate(194.629776, 29.063887)"><g><path d="M 12.375 -2.234375 L 14 -1.859375 L 14 -0.8125 L 9.828125 0.3125 L 9.15625 -0.046875 L 9.1875 -1.765625 L 9.109375 -1.796875 C 8.640625 -1.035156 8.128906 -0.503906 7.578125 -0.203125 C 7.023438 0.0976562 6.457031 0.25 5.875 0.25 C 4.695312 0.25 3.738281 -0.117188 3 -0.859375 C 2.257812 -1.609375 1.890625 -2.722656 1.890625 -4.203125 L 1.890625 -6.296875 C 1.890625 -6.648438 1.878906 -7 1.859375 -7.34375 C 1.847656 -7.6875 1.828125 -8.03125 1.796875 -8.375 L 0.125 -8.71875 L 0.125 -9.828125 L 4.546875 -10.9375 L 5.234375 -10.515625 C 5.203125 -10.023438 5.171875 -9.4375 5.140625 -8.75 C 5.117188 -8.0625 5.109375 -7.359375 5.109375 -6.640625 L 5.078125 -4.5625 C 5.078125 -3.71875 5.265625 -3.097656 5.640625 -2.703125 C 6.023438 -2.304688 6.535156 -2.109375 7.171875 -2.109375 C 7.515625 -2.109375 7.859375 -2.195312 8.203125 -2.375 C 8.546875 -2.5625 8.84375 -2.859375 9.09375 -3.265625 L 9.09375 -5.625 C 9.09375 -6.03125 9.09375 -6.382812 9.09375 -6.6875 C 9.09375 -7 9.078125 -7.285156 9.046875 -7.546875 C 9.023438 -7.816406 9 -8.09375 8.96875 -8.375 L 7.21875 -8.71875 L 7.21875 -9.828125 L 11.671875 -10.9375 L 12.328125 -10.515625 C 12.316406 -10.234375 12.300781 -9.921875 12.28125 -9.578125 C 12.269531 -9.234375 12.265625 -8.835938 12.265625 -8.390625 C 12.265625 -7.953125 12.265625 -7.441406 12.265625 -6.859375 L 12.265625 -4.890625 C 12.265625 -4.492188 12.269531 -4.070312 12.28125 -3.625 C 12.300781 -3.175781 12.332031 -2.710938 12.375 -2.234375 Z M 12.375 -2.234375 "/></g></g><g transform="translate(208.925748, 29.063887)"><g><path d="M 4.796875 0.203125 C 4.109375 0.203125 3.425781 0.125 2.75 -0.03125 C 2.082031 -0.1875 1.507812 -0.390625 1.03125 -0.640625 L 0.90625 -3.53125 L 2.5 -3.53125 L 3.015625 -1.765625 C 3.640625 -1.390625 4.289062 -1.203125 4.96875 -1.203125 C 5.46875 -1.203125 5.847656 -1.300781 6.109375 -1.5 C 6.378906 -1.707031 6.515625 -1.984375 6.515625 -2.328125 C 6.515625 -2.691406 6.367188 -3 6.078125 -3.25 C 5.796875 -3.507812 5.210938 -3.8125 4.328125 -4.15625 C 3.109375 -4.59375 2.257812 -5.070312 1.78125 -5.59375 C 1.3125 -6.125 1.078125 -6.78125 1.078125 -7.5625 C 1.078125 -8.238281 1.28125 -8.832031 1.6875 -9.34375 C 2.101562 -9.863281 2.675781 -10.265625 3.40625 -10.546875 C 4.144531 -10.835938 5 -10.984375 5.96875 -10.984375 C 6.488281 -10.984375 7.019531 -10.929688 7.5625 -10.828125 C 8.101562 -10.734375 8.554688 -10.601562 8.921875 -10.4375 L 9.1875 -7.59375 L 7.609375 -7.59375 L 7.078125 -9.328125 C 6.910156 -9.429688 6.707031 -9.507812 6.46875 -9.5625 C 6.226562 -9.625 6.003906 -9.65625 5.796875 -9.65625 C 5.304688 -9.65625 4.910156 -9.546875 4.609375 -9.328125 C 4.316406 -9.117188 4.171875 -8.832031 4.171875 -8.46875 C 4.171875 -8.09375 4.347656 -7.769531 4.703125 -7.5 C 5.066406 -7.226562 5.726562 -6.898438 6.6875 -6.515625 C 7.757812 -6.066406 8.523438 -5.59375 8.984375 -5.09375 C 9.441406 -4.59375 9.671875 -3.976562 9.671875 -3.25 C 9.671875 -2.207031 9.21875 -1.367188 8.3125 -0.734375 C 7.40625 -0.109375 6.234375 0.203125 4.796875 0.203125 Z M 4.796875 0.203125 "/></g></g><g transform="translate(219.193302, 29.063887)"><g><path d="M 9.15625 -2.0625 C 8.914062 -1.351562 8.472656 -0.789062 7.828125 -0.375 C 7.179688 0.0390625 6.457031 0.25 5.65625 0.25 C 4.519531 0.25 3.585938 -0.0820312 2.859375 -0.75 C 2.128906 -1.414062 1.765625 -2.410156 1.765625 -3.734375 L 1.84375 -9.21875 L 0.125 -9.21875 L 0.125 -9.96875 L 4.328125 -13.3125 L 5.078125 -13.3125 L 5.03125 -9.84375 L 4.984375 -4.03125 C 4.984375 -3.34375 5.148438 -2.847656 5.484375 -2.546875 C 5.828125 -2.253906 6.289062 -2.109375 6.875 -2.109375 C 7.175781 -2.109375 7.472656 -2.164062 7.765625 -2.28125 C 8.054688 -2.394531 8.316406 -2.5625 8.546875 -2.78125 Z M 3.8125 -9.21875 L 3.8125 -10.765625 L 8.5 -10.765625 L 8.5 -9.21875 Z M 3.8125 -9.21875 "/></g></g><g transform="translate(228.257243, 29.063887)"><g><path d="M 0.484375 0 L 0.421875 -1.125 L 1.9375 -1.546875 C 1.957031 -1.609375 1.972656 -1.757812 1.984375 -2 C 2.003906 -2.238281 2.019531 -2.535156 2.03125 -2.890625 C 2.050781 -3.242188 2.0625 -3.613281 2.0625 -4 L 2.09375 -5.84375 C 2.09375 -6.332031 2.070312 -6.769531 2.03125 -7.15625 C 2 -7.539062 1.941406 -7.945312 1.859375 -8.375 L 0.296875 -8.71875 L 0.296875 -9.828125 L 4.546875 -10.9375 L 5.203125 -10.515625 L 5.109375 -8.578125 L 5.1875 -8.546875 C 5.644531 -9.460938 6.113281 -10.082031 6.59375 -10.40625 C 7.082031 -10.738281 7.585938 -10.90625 8.109375 -10.90625 C 8.546875 -10.90625 8.925781 -10.78125 9.25 -10.53125 C 9.582031 -10.289062 9.75 -9.910156 9.75 -9.390625 C 9.75 -8.859375 9.570312 -8.445312 9.21875 -8.15625 C 8.875 -7.863281 8.453125 -7.71875 7.953125 -7.71875 C 7.566406 -7.71875 7.21875 -7.78125 6.90625 -7.90625 C 6.59375 -8.039062 6.253906 -8.285156 5.890625 -8.640625 L 6.578125 -8.59375 C 6.316406 -8.414062 6.078125 -8.1875 5.859375 -7.90625 C 5.640625 -7.632812 5.4375 -7.316406 5.25 -6.953125 L 5.28125 -5.015625 C 5.300781 -4.410156 5.316406 -3.863281 5.328125 -3.375 C 5.347656 -2.894531 5.363281 -2.492188 5.375 -2.171875 C 5.394531 -1.847656 5.40625 -1.640625 5.40625 -1.546875 L 7.546875 -1.171875 L 7.46875 0 Z M 0.484375 0 "/></g></g><g transform="translate(238.352853, 29.063887)"><g><path d="M 0.375 0 L 0.296875 -1.15625 L 1.9375 -1.546875 C 1.957031 -1.609375 1.972656 -1.757812 1.984375 -2 C 2.003906 -2.238281 2.019531 -2.535156 2.03125 -2.890625 C 2.050781 -3.242188 2.0625 -3.613281 2.0625 -4 L 2.09375 -5.84375 C 2.09375 -6.332031 2.070312 -6.769531 2.03125 -7.15625 C 2 -7.539062 1.941406 -7.945312 1.859375 -8.375 L 0.21875 -8.71875 L 0.21875 -9.828125 L 4.734375 -10.9375 L 5.40625 -10.515625 C 5.351562 -9.992188 5.3125 -9.460938 5.28125 -8.921875 C 5.257812 -8.390625 5.25 -7.789062 5.25 -7.125 L 5.25 -4.03125 C 5.25 -3.488281 5.257812 -2.972656 5.28125 -2.484375 C 5.3125 -1.992188 5.351562 -1.679688 5.40625 -1.546875 L 7.03125 -1.15625 L 6.953125 0 Z M 3.703125 -12.953125 C 3.035156 -12.953125 2.515625 -13.148438 2.140625 -13.546875 C 1.773438 -13.953125 1.59375 -14.414062 1.59375 -14.9375 C 1.59375 -15.457031 1.773438 -15.914062 2.140625 -16.3125 C 2.515625 -16.71875 3.035156 -16.921875 3.703125 -16.921875 C 4.378906 -16.921875 4.890625 -16.71875 5.234375 -16.3125 C 5.585938 -15.914062 5.765625 -15.457031 5.765625 -14.9375 C 5.765625 -14.414062 5.585938 -13.953125 5.234375 -13.546875 C 4.890625 -13.148438 4.378906 -12.953125 3.703125 -12.953125 Z M 3.703125 -12.953125 "/></g></g><g transform="translate(245.672784, 29.063887)"><g><path d="M 6.34375 0.203125 C 5.269531 0.203125 4.320312 -0.0351562 3.5 -0.515625 C 2.675781 -0.992188 2.03125 -1.640625 1.5625 -2.453125 C 1.09375 -3.273438 0.859375 -4.203125 0.859375 -5.234375 C 0.859375 -6.378906 1.117188 -7.378906 1.640625 -8.234375 C 2.171875 -9.097656 2.859375 -9.773438 3.703125 -10.265625 C 4.546875 -10.753906 5.445312 -10.992188 6.40625 -10.984375 C 7.863281 -10.984375 8.984375 -10.535156 9.765625 -9.640625 C 10.554688 -8.742188 10.953125 -7.585938 10.953125 -6.171875 L 10.953125 -5.578125 L 3.734375 -5.578125 L 3.734375 -6.859375 L 8.53125 -6.859375 L 8.15625 -6.265625 L 8.15625 -7.125 C 8.15625 -7.875 7.984375 -8.476562 7.640625 -8.9375 C 7.296875 -9.394531 6.820312 -9.625 6.21875 -9.625 C 5.820312 -9.625 5.457031 -9.507812 5.125 -9.28125 C 4.789062 -9.050781 4.523438 -8.703125 4.328125 -8.234375 C 4.140625 -7.773438 4.046875 -7.191406 4.046875 -6.484375 L 4.046875 -5.96875 C 4.046875 -4.84375 4.359375 -3.925781 4.984375 -3.21875 C 5.609375 -2.507812 6.4375 -2.15625 7.46875 -2.15625 C 8.019531 -2.15625 8.523438 -2.257812 8.984375 -2.46875 C 9.441406 -2.675781 9.882812 -3.023438 10.3125 -3.515625 L 11.078125 -2.796875 C 10.617188 -1.816406 9.972656 -1.070312 9.140625 -0.5625 C 8.304688 -0.0507812 7.375 0.203125 6.34375 0.203125 Z M 6.34375 0.203125 "/></g></g><g transform="translate(257.389586, 29.063887)"><g><path d="M 4.796875 0.203125 C 4.109375 0.203125 3.425781 0.125 2.75 -0.03125 C 2.082031 -0.1875 1.507812 -0.390625 1.03125 -0.640625 L 0.90625 -3.53125 L 2.5 -3.53125 L 3.015625 -1.765625 C 3.640625 -1.390625 4.289062 -1.203125 4.96875 -1.203125 C 5.46875 -1.203125 5.847656 -1.300781 6.109375 -1.5 C 6.378906 -1.707031 6.515625 -1.984375 6.515625 -2.328125 C 6.515625 -2.691406 6.367188 -3 6.078125 -3.25 C 5.796875 -3.507812 5.210938 -3.8125 4.328125 -4.15625 C 3.109375 -4.59375 2.257812 -5.070312 1.78125 -5.59375 C 1.3125 -6.125 1.078125 -6.78125 1.078125 -7.5625 C 1.078125 -8.238281 1.28125 -8.832031 1.6875 -9.34375 C 2.101562 -9.863281 2.675781 -10.265625 3.40625 -10.546875 C 4.144531 -10.835938 5 -10.984375 5.96875 -10.984375 C 6.488281 -10.984375 7.019531 -10.929688 7.5625 -10.828125 C 8.101562 -10.734375 8.554688 -10.601562 8.921875 -10.4375 L 9.1875 -7.59375 L 7.609375 -7.59375 L 7.078125 -9.328125 C 6.910156 -9.429688 6.707031 -9.507812 6.46875 -9.5625 C 6.226562 -9.625 6.003906 -9.65625 5.796875 -9.65625 C 5.304688 -9.65625 4.910156 -9.546875 4.609375 -9.328125 C 4.316406 -9.117188 4.171875 -8.832031 4.171875 -8.46875 C 4.171875 -8.09375 4.347656 -7.769531 4.703125 -7.5 C 5.066406 -7.226562 5.726562 -6.898438 6.6875 -6.515625 C 7.757812 -6.066406 8.523438 -5.59375 8.984375 -5.09375 C 9.441406 -4.59375 9.671875 -3.976562 9.671875 -3.25 C 9.671875 -2.207031 9.21875 -1.367188 8.3125 -0.734375 C 7.40625 -0.109375 6.234375 0.203125 4.796875 0.203125 Z M 4.796875 0.203125 "/></g></g></g></svg>